<?xml version="1.0" encoding="utf-8"?>
<!-- Generator: Adobe Illustrator 27.8.1, SVG Export Plug-In . SVG Version: 6.00 Build 0)  -->
<svg version="1.1" id="Calque_1" xmlns="http://www.w3.org/2000/svg" xmlns:xlink="http://www.w3.org/1999/xlink" x="0px" y="0px"
	 viewBox="0 0 70.4 87.8" style="enable-background:new 0 0 70.4 87.8;" xml:space="preserve">
<style type="text/css">
	.st0{fill:url(#SVGID_1_);}
	.st1{fill:url(#SVGID_00000053537179189681707320000016095470420402867093_);}
</style>
<g>
	<g>
		<linearGradient id="SVGID_1_" gradientUnits="userSpaceOnUse" x1="21.4952" y1="4.4665" x2="43.708" y2="54.2538">
			<stop  offset="0" style="stop-color:#82C46C"/>
			<stop  offset="1" style="stop-color:#27352A"/>
		</linearGradient>
		<path class="st0" d="M35.2,1C16.3,1,1,16.3,1,35.2c0,18.9,15.3,34.2,34.2,34.2s34.2-15.3,34.2-34.2C69.4,16.3,54.1,1,35.2,1z
			 M35.2,52.1c-9.3,0-16.9-7.5-16.9-16.9c0-9.3,7.5-16.9,16.9-16.9s16.9,7.5,16.9,16.9C52.1,44.5,44.5,52.1,35.2,52.1z"/>
	</g>
	<g>
		
			<linearGradient id="SVGID_00000181056062700281123490000011998482008402047893_" gradientUnits="userSpaceOnUse" x1="26.8353" y1="2.084" x2="49.048" y2="51.8713">
			<stop  offset="0" style="stop-color:#82C46C"/>
			<stop  offset="1" style="stop-color:#27352A"/>
		</linearGradient>
		<circle style="fill:url(#SVGID_00000181056062700281123490000011998482008402047893_);" cx="60.8" cy="78.1" r="8.7"/>
	</g>
</g>
</svg>
